# xmcd
#
# Track frame offsets:
#	150
#	15509
#	30614
#	42639
#	69058
#	80676
#	96711
#	113031
#	130957
#	149410
#	169478
#	186479
#	203672
#	213872
#	226451
#	245445
#	261022
#	278300
#	294312
#	311699
#	327110
#	339738
#
# Disc length: 4746 seconds
#
# Revision: 0
# Processed by: cddbd v1.5.2PL0 Copyright (c) Steve Scherf et al.
# Submitted via: EasyCDDAExtractor 2010.4.0.0
#
DISCID=47128816
DTITLE=Various Artist - Country Hits, Vol. 34
DYEAR=2010
DGENRE=Country
TTITLE0=Blake Shelton - Some Beach
TTITLE1=Toby Keith - High Maintenance Woman
TTITLE2=The Woolpackers - Line Dance Party
TTITLE3=Dixie Chicks - Voice Inside My Head
TTITLE4=Garth Brooks - Two Of A Kind, Workin' On A Full House
TTITLE5=Wynonna Judd - Let's Make A Baby King
TTITLE6=Trisha Yearwood - River Of You
TTITLE7=Wanda Jackson - Rockabilly Fever
TTITLE8=Blake Shelton - Delilah
TTITLE9=Wenche - Mississippi
TTITLE10=Whiskeytown - What May Seem Like Love
TTITLE11=Dixie Chicks - Hello Mr. Heartache
TTITLE12=Wanda Jackson - Lonely for You
TTITLE13=Alison Krauss and The Cox Family - Everybody Wants To Go To Heaven
TTITLE14=Garth Brooks - The Beaches Of Cheyenne
TTITLE15=Whiskeytown - Kiss and Make Up
TTITLE16=Trisha Yearwood - Too Bad You're No Good
TTITLE17=Wanda Jackson - Anytime You Wanna Fool Around
TTITLE18=Whiskeytown - If He Can't Have You
TTITLE19=Toby Keith - Brand New Bow
TTITLE20=Trisha Yearwood - Wrong Side Of Memphis
TTITLE21=Wenche - Dreamin' In My Dreams
EXTD=
EXTT0=
EXTT1=
EXTT2=
EXTT3=
EXTT4=
EXTT5=
EXTT6=
EXTT7=
EXTT8=
EXTT9=
EXTT10=
EXTT11=
EXTT12=
EXTT13=
EXTT14=
EXTT15=
EXTT16=
EXTT17=
EXTT18=
EXTT19=
EXTT20=
EXTT21=
PLAYORDER=
